<svg data-v-fde0c5aa="" xmlns="http://www.w3.org/2000/svg" viewBox="0 0 300 300" class="iconLeft"><!----><defs data-v-fde0c5aa=""><!----></defs><rect data-v-fde0c5aa="" fill="#F0F2F2" x="0" y="0" width="300px" height="300px" class="logo-background-square"></rect><defs data-v-fde0c5aa=""><!----></defs><g data-v-fde0c5aa="" id="915ecd06-7b09-4a2c-a1fc-24ecb1649b67" fill="#1C2121" transform="matrix(2.6776146119988127,0,0,2.6776146119988127,104.77868150421473,121.89843495350114)"><path d="M3.18 14.35L3.18 10.79L4.84 10.79C6.76 10.79 7.84 9.58 7.84 7.69C7.84 5.80 6.76 4.58 4.84 4.58L1.06 4.58L1.06 14.35ZM3.18 6.27L4.31 6.27C5.29 6.27 5.63 6.62 5.63 7.48L5.63 7.90C5.63 8.75 5.29 9.10 4.31 9.10L3.18 9.10ZM13.34 10.16L12.71 12.26L12.60 12.26L11.94 10.16L10.89 7.13L8.67 7.13L11.58 14.31L11.13 15.54L9.39 15.54L9.39 17.15L10.82 17.15C12.05 17.15 12.71 16.56 13.13 15.51L16.53 7.13L14.42 7.13ZM17.84 14.35L23.95 14.35L23.95 12.74L21.57 12.74L21.57 10.60C21.57 9.73 22.11 9.03 23.13 9.03L24.67 9.03L24.67 7.13L23.98 7.13C22.55 7.13 21.94 8.11 21.67 9.17L21.57 9.17L21.57 7.13L17.84 7.13L17.84 8.74L19.50 8.74L19.50 12.74L17.84 12.74ZM33.21 14.35L33.21 12.85L32.41 12.85L32.41 9.69C32.41 7.87 31.23 6.96 29.26 6.96C27.65 6.96 26.60 7.56 26.12 8.37L27.26 9.38C27.65 8.85 28.15 8.47 29.02 8.47C29.97 8.47 30.34 8.92 30.34 9.77L30.34 10.14L29.18 10.14C27.06 10.14 25.93 10.85 25.93 12.36C25.93 13.72 26.85 14.52 28.25 14.52C29.36 14.52 30.20 14.01 30.45 13.08L30.52 13.08C30.60 13.89 31.16 14.35 32.02 14.35ZM29.04 13.16C28.38 13.16 27.96 12.89 27.96 12.39L27.96 12.11C27.96 11.55 28.41 11.26 29.23 11.26L30.34 11.26L30.34 12.12C30.34 12.80 29.76 13.16 29.04 13.16ZM35.69 14.35L35.69 9.20C35.69 8.71 35.98 8.48 36.36 8.48C36.72 8.48 36.96 8.72 36.96 9.39L36.96 14.35L38.64 14.35L38.64 9.20C38.64 8.71 38.93 8.48 39.28 8.48C39.66 8.48 39.91 8.72 39.91 9.39L39.91 14.35L41.58 14.35L41.58 9.18C41.58 7.70 41.08 6.96 40.07 6.96C39.17 6.96 38.77 7.53 38.53 8.19L38.44 8.19C38.29 7.39 37.84 6.96 37.16 6.96C36.39 6.96 36.01 7.52 35.78 8.19L35.69 8.19L35.69 7.13L34.02 7.13L34.02 14.35ZM46.65 6.20C47.57 6.20 47.89 5.77 47.89 5.22L47.89 4.82C47.89 4.26 47.57 3.84 46.65 3.84C45.72 3.84 45.40 4.26 45.40 4.82L45.40 5.22C45.40 5.77 45.72 6.20 46.65 6.20ZM43.32 14.35L49.81 14.35L49.81 12.74L47.68 12.74L47.68 7.13L43.32 7.13L43.32 8.74L45.61 8.74L45.61 12.74L43.32 12.74ZM55.90 14.35L57.97 14.35L57.97 3.99L55.90 3.99L55.90 8.44L55.80 8.44C55.44 7.57 54.82 6.96 53.66 6.96C52.07 6.96 50.95 8.12 50.95 10.74C50.95 13.36 52.07 14.52 53.66 14.52C54.82 14.52 55.44 13.90 55.80 13.03L55.90 13.03ZM54.56 12.91C53.63 12.91 53.10 12.31 53.10 11.30L53.10 10.18C53.10 9.17 53.63 8.57 54.56 8.57C55.29 8.57 55.90 8.92 55.90 9.67L55.90 11.80C55.90 12.56 55.29 12.91 54.56 12.91Z"></path></g><defs data-v-fde0c5aa=""><linearGradient data-v-fde0c5aa="" gradientTransform="rotate(25)" id="f31eef38-2d1f-4ee4-81f9-bf342777f995" x1="0%" y1="0%" x2="100%" y2="0%"><stop data-v-fde0c5aa="" offset="0%" stop-color="#22526E" stop-opacity="1"></stop><stop data-v-fde0c5aa="" offset="100%" stop-color="#BDB496" stop-opacity="1"></stop></linearGradient></defs><g data-v-fde0c5aa="" id="d0df94ed-257a-4ef2-83ca-41723b9a9516" stroke="none" fill="url(#f31eef38-2d1f-4ee4-81f9-bf342777f995)" transform="matrix(0.5476976010268875,0,0,0.5476976010268875,39.8471923616092,123.27071320822222)"><path d="M74.856 57H25.759l-3.043-4.523-2.753.326L24.314 61h58.647zM17.726 53.845L.279 82.152l6.019 15.454L21.792 60.9z"></path><path d="M52.174 0L20.986 47.827l4.826 6.421zM53.148.829L27.04 55h52.219zM100 97L82.961 63H53v34zM23.338 63L8.25 97H50V63z"></path></g><!----></svg>